<mxfile host="app.diagrams.net" modified="2023-02-26T14:25:02.504Z" agent="5.0 (Windows NT 10.0; Win64; x64) AppleWebKit/537.36 (KHTML, like Gecko) Chrome/110.0.0.0 Safari/537.36" etag="a4LQwo0l4jSBbQ0RTp4j" version="20.8.13" type="github">
  <diagram name="Page-1" id="lTeEJOupz2z0rTh9YfZk">
    <mxGraphModel dx="1758" dy="749" grid="1" gridSize="10" guides="1" tooltips="1" connect="1" arrows="1" fold="1" page="0" pageScale="1" pageWidth="850" pageHeight="1100" math="0" shadow="0">
      <root>
        <mxCell id="0" />
        <mxCell id="1" parent="0" />
        <mxCell id="_SSRG653e3o-vnQIuV1o-3" value="" style="edgeStyle=orthogonalEdgeStyle;rounded=0;orthogonalLoop=1;jettySize=auto;html=1;" edge="1" parent="1" source="_SSRG653e3o-vnQIuV1o-1" target="_SSRG653e3o-vnQIuV1o-2">
          <mxGeometry relative="1" as="geometry" />
        </mxCell>
        <mxCell id="_SSRG653e3o-vnQIuV1o-1" value="Start" style="triangle;whiteSpace=wrap;html=1;" vertex="1" parent="1">
          <mxGeometry x="-30" y="400" width="60" height="80" as="geometry" />
        </mxCell>
        <mxCell id="_SSRG653e3o-vnQIuV1o-7" value="" style="edgeStyle=orthogonalEdgeStyle;rounded=0;orthogonalLoop=1;jettySize=auto;html=1;" edge="1" parent="1" source="_SSRG653e3o-vnQIuV1o-2" target="_SSRG653e3o-vnQIuV1o-6">
          <mxGeometry relative="1" as="geometry" />
        </mxCell>
        <mxCell id="_SSRG653e3o-vnQIuV1o-10" value="" style="edgeStyle=orthogonalEdgeStyle;rounded=0;orthogonalLoop=1;jettySize=auto;html=1;" edge="1" parent="1" source="_SSRG653e3o-vnQIuV1o-2" target="_SSRG653e3o-vnQIuV1o-9">
          <mxGeometry relative="1" as="geometry" />
        </mxCell>
        <mxCell id="_SSRG653e3o-vnQIuV1o-2" value="if(!ultrasonic)" style="ellipse;whiteSpace=wrap;html=1;" vertex="1" parent="1">
          <mxGeometry x="110" y="390" width="100" height="100" as="geometry" />
        </mxCell>
        <mxCell id="_SSRG653e3o-vnQIuV1o-6" value="Drivetrain.spin()" style="whiteSpace=wrap;html=1;" vertex="1" parent="1">
          <mxGeometry x="280" y="410" width="120" height="60" as="geometry" />
        </mxCell>
        <mxCell id="_SSRG653e3o-vnQIuV1o-11" value="" style="edgeStyle=orthogonalEdgeStyle;rounded=0;orthogonalLoop=1;jettySize=auto;html=1;" edge="1" parent="1" source="_SSRG653e3o-vnQIuV1o-9" target="_SSRG653e3o-vnQIuV1o-12">
          <mxGeometry relative="1" as="geometry">
            <mxPoint x="259.99999999999955" y="590" as="targetPoint" />
          </mxGeometry>
        </mxCell>
        <mxCell id="_SSRG653e3o-vnQIuV1o-9" value="else" style="ellipse;whiteSpace=wrap;html=1;" vertex="1" parent="1">
          <mxGeometry x="110" y="640" width="100" height="100" as="geometry" />
        </mxCell>
        <mxCell id="_SSRG653e3o-vnQIuV1o-17" value="" style="edgeStyle=orthogonalEdgeStyle;rounded=0;orthogonalLoop=1;jettySize=auto;html=1;" edge="1" parent="1" source="_SSRG653e3o-vnQIuV1o-12" target="_SSRG653e3o-vnQIuV1o-16">
          <mxGeometry relative="1" as="geometry" />
        </mxCell>
        <mxCell id="_SSRG653e3o-vnQIuV1o-26" value="" style="edgeStyle=orthogonalEdgeStyle;rounded=0;orthogonalLoop=1;jettySize=auto;html=1;" edge="1" parent="1" source="_SSRG653e3o-vnQIuV1o-12" target="_SSRG653e3o-vnQIuV1o-25">
          <mxGeometry relative="1" as="geometry" />
        </mxCell>
        <mxCell id="_SSRG653e3o-vnQIuV1o-12" value="while(ultrasonic &amp;gt; 10)" style="ellipse;whiteSpace=wrap;html=1;aspect=fixed;" vertex="1" parent="1">
          <mxGeometry x="285" y="635" width="110" height="110" as="geometry" />
        </mxCell>
        <mxCell id="_SSRG653e3o-vnQIuV1o-16" value="Drive(forward)" style="rounded=0;whiteSpace=wrap;html=1;" vertex="1" parent="1">
          <mxGeometry x="280" y="530" width="120" height="60" as="geometry" />
        </mxCell>
        <mxCell id="_SSRG653e3o-vnQIuV1o-22" value="" style="endArrow=none;html=1;rounded=0;exitX=1;exitY=0.5;exitDx=0;exitDy=0;" edge="1" parent="1" source="_SSRG653e3o-vnQIuV1o-16">
          <mxGeometry width="50" height="50" relative="1" as="geometry">
            <mxPoint x="425" y="575" as="sourcePoint" />
            <mxPoint x="470" y="560" as="targetPoint" />
          </mxGeometry>
        </mxCell>
        <mxCell id="_SSRG653e3o-vnQIuV1o-23" value="" style="endArrow=none;html=1;rounded=0;" edge="1" parent="1">
          <mxGeometry width="50" height="50" relative="1" as="geometry">
            <mxPoint x="470" y="560" as="sourcePoint" />
            <mxPoint x="470" y="690" as="targetPoint" />
          </mxGeometry>
        </mxCell>
        <mxCell id="_SSRG653e3o-vnQIuV1o-24" value="" style="endArrow=classic;html=1;rounded=0;" edge="1" parent="1" target="_SSRG653e3o-vnQIuV1o-12">
          <mxGeometry width="50" height="50" relative="1" as="geometry">
            <mxPoint x="470" y="690" as="sourcePoint" />
            <mxPoint x="520" y="650" as="targetPoint" />
          </mxGeometry>
        </mxCell>
        <mxCell id="_SSRG653e3o-vnQIuV1o-29" value="" style="edgeStyle=orthogonalEdgeStyle;rounded=0;orthogonalLoop=1;jettySize=auto;html=1;" edge="1" parent="1" source="_SSRG653e3o-vnQIuV1o-25" target="_SSRG653e3o-vnQIuV1o-28">
          <mxGeometry relative="1" as="geometry" />
        </mxCell>
        <mxCell id="_SSRG653e3o-vnQIuV1o-25" value="Drivetrain.stop()" style="whiteSpace=wrap;html=1;" vertex="1" parent="1">
          <mxGeometry x="280" y="820" width="120" height="60" as="geometry" />
        </mxCell>
        <mxCell id="_SSRG653e3o-vnQIuV1o-27" style="edgeStyle=orthogonalEdgeStyle;rounded=0;orthogonalLoop=1;jettySize=auto;html=1;exitX=0.5;exitY=1;exitDx=0;exitDy=0;" edge="1" parent="1" source="_SSRG653e3o-vnQIuV1o-25" target="_SSRG653e3o-vnQIuV1o-25">
          <mxGeometry relative="1" as="geometry" />
        </mxCell>
        <mxCell id="_SSRG653e3o-vnQIuV1o-31" value="" style="edgeStyle=orthogonalEdgeStyle;rounded=0;orthogonalLoop=1;jettySize=auto;html=1;" edge="1" parent="1" source="_SSRG653e3o-vnQIuV1o-28" target="_SSRG653e3o-vnQIuV1o-30">
          <mxGeometry relative="1" as="geometry" />
        </mxCell>
        <mxCell id="_SSRG653e3o-vnQIuV1o-28" value="Claw.open()" style="whiteSpace=wrap;html=1;" vertex="1" parent="1">
          <mxGeometry x="440" y="820" width="120" height="60" as="geometry" />
        </mxCell>
        <mxCell id="_SSRG653e3o-vnQIuV1o-33" value="" style="edgeStyle=orthogonalEdgeStyle;rounded=0;orthogonalLoop=1;jettySize=auto;html=1;startArrow=none;" edge="1" parent="1" source="_SSRG653e3o-vnQIuV1o-34" target="_SSRG653e3o-vnQIuV1o-32">
          <mxGeometry relative="1" as="geometry" />
        </mxCell>
        <mxCell id="_SSRG653e3o-vnQIuV1o-35" value="" style="edgeStyle=orthogonalEdgeStyle;rounded=0;orthogonalLoop=1;jettySize=auto;html=1;" edge="1" parent="1" source="_SSRG653e3o-vnQIuV1o-30" target="_SSRG653e3o-vnQIuV1o-34">
          <mxGeometry relative="1" as="geometry" />
        </mxCell>
        <mxCell id="_SSRG653e3o-vnQIuV1o-30" value="Drive(forward, 1 sec)" style="rounded=0;whiteSpace=wrap;html=1;" vertex="1" parent="1">
          <mxGeometry x="600" y="820" width="120" height="60" as="geometry" />
        </mxCell>
        <mxCell id="_SSRG653e3o-vnQIuV1o-38" value="" style="edgeStyle=orthogonalEdgeStyle;rounded=0;orthogonalLoop=1;jettySize=auto;html=1;" edge="1" parent="1" source="_SSRG653e3o-vnQIuV1o-32" target="_SSRG653e3o-vnQIuV1o-37">
          <mxGeometry relative="1" as="geometry" />
        </mxCell>
        <mxCell id="_SSRG653e3o-vnQIuV1o-32" value="Claw.close()" style="whiteSpace=wrap;html=1;" vertex="1" parent="1">
          <mxGeometry x="600" y="610" width="120" height="60" as="geometry" />
        </mxCell>
        <mxCell id="_SSRG653e3o-vnQIuV1o-36" value="" style="edgeStyle=orthogonalEdgeStyle;rounded=0;orthogonalLoop=1;jettySize=auto;html=1;endArrow=none;" edge="1" parent="1" source="_SSRG653e3o-vnQIuV1o-30" target="_SSRG653e3o-vnQIuV1o-34">
          <mxGeometry relative="1" as="geometry">
            <mxPoint x="660.0000000000005" y="820" as="sourcePoint" />
            <mxPoint x="680.0000000000005" y="670" as="targetPoint" />
          </mxGeometry>
        </mxCell>
        <mxCell id="_SSRG653e3o-vnQIuV1o-34" value="Drivetrain.stop()" style="whiteSpace=wrap;html=1;" vertex="1" parent="1">
          <mxGeometry x="600" y="720" width="120" height="60" as="geometry" />
        </mxCell>
        <mxCell id="_SSRG653e3o-vnQIuV1o-40" value="" style="edgeStyle=orthogonalEdgeStyle;rounded=0;orthogonalLoop=1;jettySize=auto;html=1;" edge="1" parent="1" source="_SSRG653e3o-vnQIuV1o-37" target="_SSRG653e3o-vnQIuV1o-39">
          <mxGeometry relative="1" as="geometry" />
        </mxCell>
        <mxCell id="_SSRG653e3o-vnQIuV1o-37" value="Arm.raise()" style="whiteSpace=wrap;html=1;" vertex="1" parent="1">
          <mxGeometry x="600" y="500" width="120" height="60" as="geometry" />
        </mxCell>
        <mxCell id="_SSRG653e3o-vnQIuV1o-42" value="" style="edgeStyle=orthogonalEdgeStyle;rounded=0;orthogonalLoop=1;jettySize=auto;html=1;" edge="1" parent="1" source="_SSRG653e3o-vnQIuV1o-39" target="_SSRG653e3o-vnQIuV1o-41">
          <mxGeometry relative="1" as="geometry" />
        </mxCell>
        <mxCell id="_SSRG653e3o-vnQIuV1o-50" value="" style="edgeStyle=orthogonalEdgeStyle;rounded=0;orthogonalLoop=1;jettySize=auto;html=1;" edge="1" parent="1" source="_SSRG653e3o-vnQIuV1o-39" target="_SSRG653e3o-vnQIuV1o-49">
          <mxGeometry relative="1" as="geometry" />
        </mxCell>
        <mxCell id="_SSRG653e3o-vnQIuV1o-39" value="while(linesensor = notTape)" style="ellipse;whiteSpace=wrap;html=1;aspect=fixed;" vertex="1" parent="1">
          <mxGeometry x="605" y="360" width="110" height="110" as="geometry" />
        </mxCell>
        <mxCell id="_SSRG653e3o-vnQIuV1o-41" value="Drive(forward)" style="rounded=0;whiteSpace=wrap;html=1;" vertex="1" parent="1">
          <mxGeometry x="600" y="260" width="120" height="60" as="geometry" />
        </mxCell>
        <mxCell id="_SSRG653e3o-vnQIuV1o-43" value="" style="endArrow=none;html=1;rounded=0;entryX=0;entryY=0.5;entryDx=0;entryDy=0;" edge="1" parent="1" target="_SSRG653e3o-vnQIuV1o-41">
          <mxGeometry width="50" height="50" relative="1" as="geometry">
            <mxPoint x="540" y="290" as="sourcePoint" />
            <mxPoint x="750" y="300" as="targetPoint" />
          </mxGeometry>
        </mxCell>
        <mxCell id="_SSRG653e3o-vnQIuV1o-44" value="" style="endArrow=none;html=1;rounded=0;" edge="1" parent="1">
          <mxGeometry width="50" height="50" relative="1" as="geometry">
            <mxPoint x="540" y="420" as="sourcePoint" />
            <mxPoint x="540" y="290" as="targetPoint" />
          </mxGeometry>
        </mxCell>
        <mxCell id="_SSRG653e3o-vnQIuV1o-48" value="" style="endArrow=classic;html=1;rounded=0;entryX=-0.002;entryY=0.541;entryDx=0;entryDy=0;entryPerimeter=0;" edge="1" parent="1" target="_SSRG653e3o-vnQIuV1o-39">
          <mxGeometry width="50" height="50" relative="1" as="geometry">
            <mxPoint x="540" y="420" as="sourcePoint" />
            <mxPoint x="770" y="280" as="targetPoint" />
            <Array as="points">
              <mxPoint x="570" y="420" />
            </Array>
          </mxGeometry>
        </mxCell>
        <mxCell id="_SSRG653e3o-vnQIuV1o-52" value="" style="edgeStyle=orthogonalEdgeStyle;rounded=0;orthogonalLoop=1;jettySize=auto;html=1;" edge="1" parent="1" source="_SSRG653e3o-vnQIuV1o-49" target="_SSRG653e3o-vnQIuV1o-51">
          <mxGeometry relative="1" as="geometry" />
        </mxCell>
        <mxCell id="_SSRG653e3o-vnQIuV1o-49" value="Drivetrain.stop()" style="whiteSpace=wrap;html=1;" vertex="1" parent="1">
          <mxGeometry x="750" y="385" width="120" height="60" as="geometry" />
        </mxCell>
        <mxCell id="_SSRG653e3o-vnQIuV1o-54" value="" style="edgeStyle=orthogonalEdgeStyle;rounded=0;orthogonalLoop=1;jettySize=auto;html=1;" edge="1" parent="1" source="_SSRG653e3o-vnQIuV1o-51" target="_SSRG653e3o-vnQIuV1o-53">
          <mxGeometry relative="1" as="geometry" />
        </mxCell>
        <mxCell id="_SSRG653e3o-vnQIuV1o-51" value="Arm.Lower()" style="whiteSpace=wrap;html=1;" vertex="1" parent="1">
          <mxGeometry x="750" y="500" width="120" height="60" as="geometry" />
        </mxCell>
        <mxCell id="_SSRG653e3o-vnQIuV1o-56" value="" style="edgeStyle=orthogonalEdgeStyle;rounded=0;orthogonalLoop=1;jettySize=auto;html=1;" edge="1" parent="1" source="_SSRG653e3o-vnQIuV1o-53" target="_SSRG653e3o-vnQIuV1o-55">
          <mxGeometry relative="1" as="geometry" />
        </mxCell>
        <mxCell id="_SSRG653e3o-vnQIuV1o-53" value="Claw.open()" style="whiteSpace=wrap;html=1;" vertex="1" parent="1">
          <mxGeometry x="750" y="610" width="120" height="60" as="geometry" />
        </mxCell>
        <mxCell id="_SSRG653e3o-vnQIuV1o-55" value="Drive(backwards, 5 sec)" style="whiteSpace=wrap;html=1;" vertex="1" parent="1">
          <mxGeometry x="750" y="720" width="120" height="60" as="geometry" />
        </mxCell>
      </root>
    </mxGraphModel>
  </diagram>
</mxfile>
